<?xml version="1.0" encoding="UTF-8"?>
<svg id="Layer_1" xmlns="http://www.w3.org/2000/svg" version="1.1" viewBox="0 0 1920 411.9">
  <!-- Generator: Adobe Illustrator 29.5.0, SVG Export Plug-In . SVG Version: 2.1.0 Build 137)  -->
  <g>
    <path d="M497,146.5h87.3v163.4h-114.9V64.9h27.5v81.5ZM497,283.1l58.3-.4v-110.1h-58.3v110.5Z"/>
    <path d="M758.6,146.5v230.1h-114.9v-25.7h85.9v-40.9h-85.1v-163.4h26.8v136.6h58.3v-136.6h29Z"/>
    <path d="M918.1,309.9h-66.7v-137.3h-33.3v-26.1h33.3v-48.2h27.5v48.2h39.1v26.1h-39.1v111.2h39.1v26.1Z"/>
    <path d="M1006.5,243.2v40.6h85.9v26.1h-114.9v-163.4h114.1v96.7h-85.1ZM1006.5,216.4h58.7v-43.1h-58.7v43.1Z"/>
    <path d="M1151.8,309.9v-163.4h114.9v163.4h-114.9ZM1239.4,173.3l-58.7.4v110.1h58.7v-110.5Z"/>
    <path d="M1411.2,146.5h29.7v137.3h58v-137.3h27.5v163.4h-200.4v-163.4h29v137.3h56.2v-137.3Z"/>
    <path d="M1613,64.9v244.9h-27.5V64.9h27.5Z"/>
    <path d="M1708.3,283.8h75.7v26.1h-112v-26.1l85.9-110.1h-85.9v-27.2h114.9v28.3l-78.6,109.1Z"/>
  </g>
  <g>
    <path d="M170.4,229.6v22.5c0,.3.2.6.4.8l76.3,56.6c.4.3.8.3,1.2,0l76.3-56.6c.3-.2.4-.5.4-.8v-22.5c0-.8-.9-1.3-1.6-.8l-75.1,55.7c-.4.3-.8.3-1.2,0l-75.1-55.7c-.7-.5-1.6,0-1.6.8Z"/>
    <path d="M247.2,171.5L105,66.1c-.7-.5-1.6,0-1.6.8v44.1c0,.3.2.6.4.8l143.4,106.3c.4.3.8.3,1.2,0l143.4-106.3c.3-.2.4-.5.4-.8v-44.1c0-.8-.9-1.3-1.6-.8l-142.2,105.4c-.4.3-.8.3-1.2,0Z"/>
    <path d="M287.5,227.8v-10.3c0-.8-.9-1.3-1.6-.8l-37.5,27.8c-.4.3-.8.3-1.2,0l-37.5-27.8c-.7-.5-1.6,0-1.6.8v10.3c0,.3.2.6.4.8l38.7,28.7c.4.3.8.3,1.2,0l38.7-28.7c.3-.2.4-.5.4-.8Z"/>
  </g>
</svg>